<svg width="102" height="40" viewBox="0 0 102 40" fill="none" xmlns="http://www.w3.org/2000/svg">
<g clip-path="url(#clip0_36_135)">
<path d="M32.8954 5.49129C36.7647 6.80742 39.3791 10.4424 39.3791 14.4953C39.3791 17.817 37.8314 20.7626 35.1961 22.5383C33.1463 23.8963 31.7451 24.2305 28.064 24.2305H24.9478V27.2596V30.2889L41.4287 30.247C50.485 30.2262 56.6758 30.1425 55.1699 30.0799C53.685 30.0172 52.9529 29.9337 53.5595 29.9128C54.1451 29.8918 54.647 29.7665 54.647 29.6412C54.647 29.5368 54.5634 29.4741 54.4588 29.5368C54.3542 29.6203 54.2078 29.2861 54.1451 28.8264C53.7686 26.236 53.7478 26.2151 53.6012 26.6329C53.4968 26.9254 53.434 26.7582 53.3294 26.0271C53.2458 25.4839 53.0365 24.899 52.8693 24.7318C52.6183 24.4811 52.5973 24.314 52.7856 23.9798C52.911 23.7291 52.9321 23.6037 52.8066 23.6872C52.7019 23.7499 52.5346 23.6664 52.4718 23.4784C52.2836 22.977 52.6601 22.977 53.0576 22.977C53.4549 22.977 55.5255 22.6636 55.5882 22.5591C55.6718 22.4338 52.9529 22.5591 50.9242 22.5591C47.4522 22.5591 46.1973 22.3084 44.5451 21.264C39.7765 18.2347 38.9608 11.5914 42.8928 7.58033C43.4365 7.03727 43.8758 6.47321 43.8758 6.36871C43.8968 6.24336 44.0223 6.18069 44.1478 6.22252C44.2941 6.24336 44.6078 6.15985 44.8588 6.0345C45.2144 5.84648 45.2353 5.76282 45.0052 5.59579C44.7961 5.44945 44.838 5.42861 45.1725 5.53312C45.4444 5.59579 45.8 5.5748 45.9882 5.47045C46.4902 5.17792 42.9973 5.01074 36.8693 5.01074L31.536 5.03174L32.8954 5.49129Z" fill="#C1C4D0"/>
<path d="M20.1372 14.6623V19.4881L25.5124 19.3419C31.3686 19.1748 32.0379 19.0494 33.1254 17.796L33.6274 17.2319L33.0836 17.6916C32.4144 18.2973 32.3098 18.2973 32.4352 17.6498C32.4771 17.3364 32.4352 17.1276 32.2889 17.1276C32.1634 17.1276 32.0588 17.0022 32.0588 16.835C32.0588 16.6888 31.9124 16.271 31.7451 15.9576C31.5777 15.6234 31.4313 14.9548 31.4313 14.4953C31.4313 13.6806 31.034 12.9911 30.7411 13.3045C30.6575 13.3672 30.5948 13.1582 30.5948 12.8031C30.5948 12.4479 30.4693 12.0511 30.3019 11.9257C30.1345 11.7794 30.0509 11.5078 30.1137 11.299C30.1556 11.09 30.0509 10.7766 29.8627 10.5677C29.549 10.2544 29.5698 10.2335 30.3228 10.1917C32.0379 10.129 27.1438 9.85751 23.7556 9.83651L20.1372 9.81567V14.6623Z" fill="#C1C4D0"/>
<path d="M47.6404 10.2125C46.6365 10.6722 45.9882 11.3406 45.549 12.3644C45.1516 13.3461 45.1516 13.9102 45.549 15.0593C45.9463 16.1456 46.4902 16.7723 47.5149 17.2737C48.1634 17.6079 49.0208 17.6706 53.8105 17.7542L59.3529 17.8586L60.7752 18.5272C66.1502 21.0759 67.5306 27.9281 63.5568 32.3152C62.4693 33.506 61.6117 34.1118 60.1267 34.6967L59.1438 35.0728L64.2262 35.0936H69.2875V26.7373V18.381H71.7973H74.3071V26.7373V35.0936H76.3987H78.4902L78.4483 28.0326C78.4065 21.4519 78.3855 21.2848 78.2811 25.3793C78.1764 29.7664 78.1764 29.7664 77.8836 28.3459C77.6953 27.4267 77.5071 26.9461 77.3189 26.9461C77.1516 26.9461 77.0262 26.8418 77.0262 26.7165C77.0262 26.5911 77.1516 26.5284 77.3189 26.5911C77.5281 26.6746 77.6117 26.5701 77.5698 26.2359C77.549 25.9852 77.4654 25.6927 77.4026 25.5883C77.3399 25.463 77.1725 24.8989 77.0262 24.293C76.8588 23.6872 76.6705 23.2484 76.5659 23.3111C76.4823 23.3738 76.3987 23.2276 76.3987 23.0188C76.3987 22.7681 76.2105 22.559 75.9385 22.4964C75.583 22.392 75.5411 22.3084 75.7502 22.0787C75.8967 21.8696 75.9385 21.4519 75.8549 20.9087C75.7294 20.1358 75.6875 20.0731 75.2693 20.3028C75.0392 20.4282 74.7463 20.6372 74.6627 20.7625C74.5791 20.8879 74.5163 20.2612 74.5581 19.3837C74.5791 18.3183 74.5163 17.6706 74.349 17.5035C74.2026 17.3572 74.098 17.0438 74.098 16.7932C74.098 16.5216 73.9934 16.2501 73.847 16.1664C73.7007 16.0621 73.7634 15.9576 74.0771 15.8531C74.4953 15.686 74.5372 15.5607 74.4745 14.1609L74.4117 12.6359L72.634 12.5106C71.6509 12.4479 71.2536 12.3852 71.7556 12.3644C72.885 12.3017 72.9477 11.8212 71.86 11.5286C71.4208 11.4243 71.2326 11.3198 71.4418 11.2989C71.6509 11.2779 71.7973 11.1109 71.7973 10.8811C71.7973 10.6512 71.6301 10.4215 71.4418 10.3797C71.2326 10.317 71.7764 10.2543 72.634 10.2125C75.583 10.1082 66.0458 9.8783 57.2614 9.85746C49.1254 9.83647 48.4144 9.85746 47.6404 10.2125ZM70.4796 12.4479C70.4169 12.5106 70.2287 12.5314 70.0823 12.4687C69.9149 12.4061 69.9777 12.3434 70.2078 12.3434C70.4379 12.3225 70.5634 12.3852 70.4796 12.4479ZM74.3071 14.2027V15.686L71.6509 15.6234L68.9738 15.5607L68.911 14.4326C68.8065 12.6777 68.7228 12.7404 71.6928 12.7404H74.3071V14.2027ZM72.4875 16.0202C72.3411 16.0621 72.0902 16.0621 71.9647 16.0202C71.8183 15.9576 71.9228 15.9157 72.2156 15.9157C72.5085 15.9157 72.613 15.9576 72.4875 16.0202Z" fill="#C1C4D0"/>
<path d="M31.2431 10.317C31.285 10.3588 31.5568 10.505 31.8497 10.6303C32.3516 10.8602 32.3516 10.8602 31.9752 10.5677C31.6404 10.2961 30.9502 10.0663 31.2431 10.317Z" fill="#C1C4D0"/>
<path d="M33.6484 16.8559C33.5229 17.1484 33.5439 17.1693 33.753 16.9813C33.8994 16.8351 33.9621 16.6679 33.8994 16.6052C33.8367 16.5425 33.7112 16.6471 33.6484 16.8559Z" fill="#C1C4D0"/>
<path d="M74.83 19.4254C74.7673 19.5299 74.809 19.8014 74.9137 19.9895C75.1019 20.3238 75.1227 20.282 75.1438 19.7806C75.1438 19.1957 75.0391 19.0704 74.83 19.4254Z" fill="#C1C4D0"/>
<path d="M30.1766 10.1292H30.0197C27.5074 10.1292 25.4707 12.1635 25.4707 14.6729C25.4707 17.1824 27.5074 19.2167 30.0197 19.2167H30.1766C32.6889 19.2167 34.7256 17.1824 34.7256 14.6729C34.7256 12.1635 32.6889 10.1292 30.1766 10.1292Z" fill="#C1C4D0"/>
<path d="M56.4509 22.5068H52.6862C50.5636 22.5068 48.843 24.2255 48.843 26.3455C48.843 28.4656 50.5636 30.1843 52.6862 30.1843H56.4509C58.5734 30.1843 60.294 28.4656 60.294 26.3455C60.294 24.2255 58.5734 22.5068 56.4509 22.5068Z" fill="#C1C4D0"/>
<path d="M78.4903 10.1292H74.4119V30.3411H78.4903V10.1292Z" fill="#C1C4D0"/>
<path d="M78.4901 5.11523H44.4509V5.89864H78.4901V5.11523Z" fill="#C1C4D0"/>
<path d="M61.0784 34.4148H25V35.0415H61.0784V34.4148Z" fill="#C1C4D0"/>
<path d="M74.4118 15.6128H68.9216V18.2764H74.4118V15.6128Z" fill="#C1C4D0"/>
<path d="M75.196 10.1292H68.4509V12.7927H75.196V10.1292Z" fill="#C1C4D0"/>
</g>
<defs>
<clipPath id="clip0_36_135">
<rect width="102" height="40" fill="white"/>
</clipPath>
</defs>
</svg>
