<svg width="102" height="40" viewBox="0 0 102 40" fill="none" xmlns="http://www.w3.org/2000/svg">
<g clip-path="url(#clip0_36_155)">
<path d="M70.7602 8.79987C70.6481 9.21587 70.8563 9.58387 71.3527 9.85587C71.737 10.0479 72.3135 9.80787 72.8419 9.26387L73.2422 8.81587L73.4184 9.26387C73.6105 9.79187 73.3864 10.7999 72.922 11.4559C72.7618 11.6959 72.2654 12.1119 71.8331 12.3999C70.8243 13.0239 71.0004 12.5279 69.6393 18.9599C69.5272 19.5359 69.2069 21.0399 68.9347 22.3039C68.6785 23.5679 68.4864 24.6399 68.5184 24.6879C68.5664 24.7199 69.1589 24.4479 69.8635 24.0799C71.3207 23.3279 71.4808 23.1039 71.8811 21.1999C72.0092 20.5439 72.3135 19.1359 72.5377 18.0799C74.219 10.2399 74.2351 10.1599 73.7386 9.07187L73.4344 8.39987H72.1534C70.9043 8.39987 70.8563 8.41587 70.7602 8.79987Z" fill="#C1C4D0"/>
<path d="M55.9962 11.456C54.5871 12.608 54.555 12.896 55.772 14.32L56.2364 14.864L57.3093 14C57.8858 13.536 58.3661 13.104 58.3661 13.056C58.3661 13.008 58.4142 12.816 58.4622 12.624C58.5263 12.4 58.3501 12.048 57.8858 11.472C57.5335 11.008 57.1812 10.64 57.1171 10.64C57.0531 10.656 56.5567 11.024 55.9962 11.456Z" fill="#C1C4D0"/>
<path d="M23.906 13.6479C22.5769 14.7359 22.5289 15.1519 23.5697 16.3679L24.1782 17.0559L25.2671 16.1599C26.1158 15.4399 26.34 15.1679 26.34 14.8159C26.34 14.3359 25.3311 12.8799 25.0109 12.8799C24.8988 12.8959 24.4024 13.2319 23.906 13.6479Z" fill="#C1C4D0"/>
<path d="M31.1439 13.904C29.3504 14.832 29.4785 14.544 28.1815 20.72C27.7011 22.944 27.4769 24 27.3008 24.816C27.0606 25.872 26.324 26.624 25.3952 26.752C24.3383 26.896 24.3063 27.232 25.8596 19.872C26.1318 18.56 26.324 17.456 26.2919 17.408C26.2439 17.376 25.6354 17.632 24.9308 17.984C23.954 18.48 23.6017 18.736 23.4096 19.152C23.2815 19.44 22.8972 20.976 22.5769 22.544C22.2406 24.128 21.8883 25.632 21.7602 25.904C21.2478 27.12 19.9027 28.336 18.6857 28.704C18.0932 28.864 17.8691 28.864 17.2125 28.64C15.5632 28.096 14.8426 26.192 16.0756 25.68C16.604 25.472 16.9243 25.584 17.5168 26.224C18.0612 26.8 18.4455 26.752 18.7658 26.096C19.1021 25.376 18.9419 24.8 18.2374 24.128C17.757 23.68 17.5488 23.6 16.8602 23.6C15.8674 23.6 14.9547 24.176 14.4903 25.136C14.058 26 14.09 26.736 14.5704 27.696C15.4671 29.456 17.6289 30.128 19.4704 29.184C20.271 28.784 22.0164 27.632 22.4968 27.184L22.9132 26.8L23.5377 27.136C24.3864 27.568 26.1478 27.504 27.1566 26.976L27.8292 26.624L28.6138 27.04C29.3024 27.424 29.5586 27.472 30.4713 27.408C31.1759 27.376 31.8164 27.216 32.3289 26.976C32.9534 26.672 33.1615 26.624 33.3697 26.784C34.2504 27.424 34.5707 27.456 38.7981 27.408L42.9135 27.36L43.8423 26.88C44.9792 26.32 46.3563 24.88 46.7246 23.904C46.9648 23.248 47.2851 21.824 47.8936 18.752C48.2138 17.12 48.0217 16.08 47.221 15.136C46.3723 14.16 45.8439 13.936 44.4347 13.936C43.4579 13.952 43.0736 14.032 42.3851 14.384C41.3122 14.928 40.2233 15.92 39.6789 16.832C39.3106 17.488 38.7341 19.248 38.8782 19.376C38.9743 19.488 41.1361 18.304 41.5204 17.936C41.7285 17.744 41.9847 17.2 42.1129 16.736C42.4171 15.584 42.7374 15.136 43.57 14.768C44.3547 14.432 44.787 14.48 45.3635 15.008C45.7478 15.376 45.8119 16.016 45.5557 17.12C45.3475 18.032 44.9952 18.256 43.522 18.368C41.9367 18.496 40.9439 18.928 39.823 19.984C38.5419 21.2 38.1256 22.096 38.1256 23.68C38.1256 24.384 38.1896 25.248 38.2537 25.616C38.4459 26.608 38.1736 26.8 36.5243 26.8C35.6436 26.8 35.1312 26.736 35.0191 26.592C34.907 26.464 34.923 26.08 35.0831 25.36C35.7557 22.464 36.5563 18.544 36.4923 18.496C36.3642 18.368 34.0102 19.664 33.722 20.032C33.5619 20.208 33.3537 20.784 33.2416 21.312C33.1455 21.824 32.9374 22.784 32.8093 23.44C32.3129 25.856 31.8325 26.56 30.6315 26.736C29.8148 26.848 29.6547 26.656 29.8308 25.744C30.1351 24.192 32.0887 15.024 32.2488 14.352C32.553 13.152 32.5851 13.168 31.1439 13.904ZM44.2586 19.376C44.8991 19.904 44.8831 20.16 44.2426 23.184C43.7782 25.344 43.6821 25.632 43.2017 26.096C42.273 27.04 41.0079 26.976 40.4475 25.984C40.2393 25.616 40.2713 25.328 40.7517 23.04C41.3442 20.304 41.6004 19.744 42.5132 19.264C43.2658 18.848 43.6821 18.88 44.2586 19.376Z" fill="#C1C4D0"/>
<path d="M59.9034 14.2078C58.9907 14.6878 58.5903 15.0078 58.4142 15.3598C58.3021 15.6158 57.7096 18.1598 57.1011 20.9918C56.5086 23.8238 55.9001 26.3198 55.756 26.5438C54.8593 27.8878 52.6015 27.6798 52.6015 26.2558C52.6015 25.9838 52.9698 24.0638 53.4021 21.9998C53.8505 19.9358 54.2028 17.8558 54.2028 17.3918C54.2028 15.3598 52.5054 13.9358 51.4005 15.0398C50.8881 15.5358 50.84 16.4638 51.3044 16.7198C51.8809 17.0238 52.4413 16.8958 52.9377 16.3518C53.3381 15.9198 53.4341 15.8878 53.5622 16.0798C54.0747 16.8798 53.4982 18.2718 52.2652 19.2158C51.7528 19.6158 51.2564 20.0638 51.1603 20.2238C50.84 20.8478 50.1835 24.3198 50.2635 25.0078C50.5198 26.9758 51.8328 28.0798 53.9305 28.0798C54.9234 28.0798 55.2596 27.9998 56.0763 27.5998C57.1972 27.0398 58.4142 25.8238 58.8626 24.7998C59.0387 24.4158 59.423 22.8958 59.7433 21.4078C60.0475 19.9358 60.4158 18.2558 60.5279 17.6798C60.656 17.1038 60.8962 15.9838 61.0724 15.1998C61.2485 14.3998 61.3286 13.7118 61.2805 13.6478C61.2165 13.5998 60.608 13.8398 59.9034 14.2078Z" fill="#C1C4D0"/>
<path d="M83.6508 14.528C83.3305 14.656 82.8661 14.896 82.6099 15.072C82.3537 15.248 81.7612 15.584 81.3129 15.824C80.8485 16.048 80.3521 16.416 80.224 16.624C80.0799 16.832 79.6795 18.368 79.3272 20.016C78.9589 21.76 78.5746 23.2 78.4145 23.424C77.79 24.272 76.7331 24.72 76.2367 24.352C75.9645 24.16 75.9645 24.08 76.2047 23.104C76.621 21.344 77.9181 15.072 77.854 15.024C77.758 14.928 75.5642 16.128 75.1959 16.48C74.9076 16.768 74.7315 17.28 74.4593 18.592C73.3063 24.08 73.1942 24.336 71.7851 25.52C70.3279 26.736 69.7354 27.616 69.7034 28.672C69.6714 29.728 70.6802 29.968 71.4648 29.104C72.0573 28.432 71.7851 27.6 70.9524 27.6C70.2478 27.6 70.504 27.104 71.4968 26.528C72.5857 25.904 73.5305 25.296 74.0589 24.864C74.4593 24.56 74.4913 24.56 75.0197 24.832C76.3968 25.536 78.5906 25.024 80.1759 23.616C80.9125 22.96 81.9053 21.296 81.9053 20.704C81.9053 20.56 82.0014 20 82.1295 19.488C82.2576 18.976 82.4818 17.952 82.6419 17.216C82.9142 15.968 82.9782 15.856 83.4586 15.664C84.7877 15.104 86.373 15.632 86.373 16.64C86.373 17.28 85.9566 17.6 84.9799 17.68C84.2593 17.744 84.0511 17.824 84.0191 18.048C83.8429 18.976 84.5635 19.6 85.8285 19.6C87.5419 19.6 88.5187 17.408 87.5259 15.712C86.9014 14.624 84.9799 14.032 83.6508 14.528Z" fill="#C1C4D0"/>
<path d="M64.339 15.2639C63.4743 15.6639 62.3053 16.7359 61.969 17.4719C61.4566 18.5279 60.5599 22.8479 60.704 23.5199C61.0083 24.9919 61.953 25.7919 63.5543 25.9519C64.9475 26.0799 65.1236 26.3359 64.5792 27.4079C64.0347 28.4799 62.9619 29.1199 61.7128 29.1199C60.5279 29.1199 60.2236 28.8639 60.8161 28.3999C61.6648 27.7279 61.1524 26.4959 60.2556 26.9759C59.471 27.3919 59.423 28.1599 60.1436 28.8639C61.1524 29.8879 62.7056 29.8719 64.355 28.8159C66.0684 27.7279 67.2213 25.9839 67.7338 23.7599C67.8779 23.1039 68.1021 22.1279 68.2141 21.5999C68.9988 18.1599 69.0468 17.1199 68.4543 16.1599C67.7498 15.0239 65.8122 14.6079 64.339 15.2639ZM66.7089 15.7759C67.1253 16.1919 67.1092 16.3999 66.1965 20.6399C65.8442 22.3039 65.5239 23.8559 65.4759 24.0639C65.4279 24.2719 65.1877 24.6399 64.9315 24.8959C64.1789 25.6639 62.8978 25.4879 62.6256 24.5919C62.5775 24.4319 62.6736 23.6639 62.8498 22.8799C63.0259 22.0799 63.3942 20.3679 63.6504 19.0559C63.9226 17.7439 64.2269 16.5279 64.307 16.3679C64.5311 15.9359 65.4119 15.4399 65.9403 15.4399C66.1805 15.4399 66.5328 15.5999 66.7089 15.7759Z" fill="#C1C4D0"/>
<path d="M76.653 26.896C76.2847 27.2 75.9805 27.584 75.9805 27.728C75.9805 28.048 76.653 29.04 76.8772 29.04C77.1814 29.04 78.3824 27.904 78.3824 27.6C78.3824 27.296 77.6618 26.32 77.4377 26.32C77.3736 26.32 77.0213 26.576 76.653 26.896Z" fill="#C1C4D0"/>
<path d="M29.3025 28.8799C28.1815 29.8079 28.1175 30.0159 28.6779 30.8159C28.9181 31.1839 29.2224 31.5039 29.3345 31.5519C29.4466 31.5999 29.8949 31.3119 30.3433 30.9439L31.176 30.2399L31.6404 30.7999C31.8806 31.1039 32.1047 31.4079 32.1047 31.4719C32.1047 31.7919 32.6332 31.5359 33.4018 30.8319C34.3466 29.9519 34.3786 29.6959 33.5619 28.7359L33.0976 28.1759L32.2969 28.8479C31.8645 29.2159 31.4322 29.5199 31.3681 29.5199C31.2881 29.5199 30.9838 29.2319 30.6636 28.8799L30.1031 28.2239L29.3025 28.8799Z" fill="#C1C4D0"/>
</g>
<defs>
<clipPath id="clip0_36_155">
<rect width="102" height="40" fill="white"/>
</clipPath>
</defs>
</svg>
