<svg width="102" height="40" viewBox="0 0 102 40" fill="none" xmlns="http://www.w3.org/2000/svg">
<path d="M75.0346 2.32917C73.9414 2.74562 72.4578 3.94292 71.8852 4.87994L71.4167 5.63476L70.7139 5.08817C70.1673 4.67171 69.6468 4.54157 68.6056 4.54157C66.211 4.5676 64.5192 5.79093 63.1137 8.57595L62.4369 9.87736L61.3438 8.78418C60.1204 7.58688 58.9492 7.1444 57.7258 7.37865C56.5546 7.58688 55.1751 8.3417 54.4463 9.12254C53.6394 9.98148 53.4832 9.98148 53.0147 9.07049C52.1037 7.30057 49.5269 5.16625 47.2625 4.28129C45.0761 3.44839 40.8856 3.44839 37.8923 4.30732C31.9319 6.02518 27.4029 9.22666 24.4097 13.8597C22.0151 17.5817 21 21.0695 21 25.5464C21 28.2273 21.1041 28.9821 21.7028 30.8041C22.848 34.2398 25.1125 36.8947 28.0537 38.2221C29.9537 39.1071 35.0552 39.2112 38.0485 38.4564C40.4951 37.8317 43.7487 36.3481 45.857 34.9426C47.6789 33.7192 50.3338 31.0904 51.3749 29.4766L52.2079 28.2012L52.364 29.0862C52.6243 30.8301 54.0298 32.2616 55.7477 32.574C58.0382 32.9904 60.4588 31.3767 62.0205 28.4095C62.489 27.4725 62.9575 26.7176 63.0616 26.7176C63.1657 26.7176 63.5562 27.1341 63.9206 27.6026C64.8836 28.878 66.6275 29.6849 67.9289 29.4506C69.2043 29.2424 71.1564 28.019 71.7551 27.056C72.0153 26.6656 72.2496 26.2752 72.2756 26.2231C72.3277 26.171 72.9003 26.4053 73.551 26.7176C74.6702 27.2642 74.9045 27.2903 76.1018 27.0039C78.0018 26.5875 79.3813 25.7286 80.3183 24.4271L81.0992 23.2819L81.1773 14.146C81.2554 3.9169 81.2293 3.78675 79.4334 2.58946C78.4443 1.91272 76.5182 1.80861 75.0346 2.32917ZM78.9128 2.77165C80.1101 3.42236 80.1882 4.02101 80.1882 13.1829C80.1882 22.3969 80.1361 22.9175 78.8087 24.3491C77.9498 25.2601 76.1799 25.9368 74.5921 25.9368C73.2907 25.9368 73.1346 25.8587 72.4058 24.9737C71.7551 24.1669 71.5989 24.0888 71.5989 24.5052C71.5989 25.3121 70.3756 26.9259 69.2043 27.6546C67.7988 28.5396 66.0288 28.6177 64.9357 27.8368C64.5192 27.5245 63.8425 26.7437 63.4 26.093C62.9835 25.4422 62.5671 24.8957 62.489 24.8957C62.4109 24.8957 62.0726 25.5203 61.7602 26.2752C60.3026 29.4766 58.819 31.0123 56.6847 31.5068C55.4874 31.7931 53.9517 31.2205 53.3791 30.2835C52.4421 28.7739 52.6243 28.2273 56.3463 21.486C56.8669 20.5229 57.2834 19.5078 57.2834 19.1955C57.2834 18.8831 56.5546 17.7639 55.6696 16.6707L54.0298 14.7186L53.8737 17.6858C53.5613 23.3079 51.6613 27.8368 48.1214 31.4548C43.5665 36.1138 35.3155 39.029 29.9017 37.8837C26.7262 37.207 24.4878 35.4631 23.1083 32.626C21.9891 30.3095 21.6247 28.6698 21.6247 25.6765C21.6247 16.3063 27.6893 8.31567 37.1115 5.27036C42.2651 3.60456 46.82 3.99498 49.9174 6.36355C50.9585 7.1444 52.7544 9.77325 52.9887 10.8404C53.1969 11.8035 53.4052 11.8295 53.9778 10.8664C54.6805 9.69516 56.0861 8.60198 57.5176 8.10744C58.7149 7.71702 58.8971 7.71702 59.678 8.08141C60.1465 8.31567 60.9273 9.07049 61.4218 9.79928C61.9164 10.502 62.3849 11.0226 62.515 10.9705C62.6191 10.8925 63.1397 10.0335 63.6863 9.07049C64.2069 8.10744 64.8836 7.04028 65.1959 6.72795C66.6535 5.08817 69.4125 4.59363 70.6619 5.7649C71.0263 6.10327 71.3386 6.51972 71.3386 6.67589C71.3386 7.19645 71.729 6.91014 72.0934 6.15532C73.2387 3.5525 76.9347 1.73052 78.9128 2.77165ZM56.7628 18.9872C56.7628 19.4558 54.3161 23.6723 54.212 23.386C54.16 23.2038 54.2381 22.7093 54.3942 22.2668C54.5504 21.8243 54.7326 20.4188 54.8367 19.1174L55.0189 16.7748L55.8778 17.7639C56.3463 18.3365 56.7368 18.8831 56.7628 18.9872Z" fill="#C1C4D0"/>
<path d="M75.4252 3.91691C73.6032 4.56761 72.6401 5.89505 72.6401 7.71703C72.6401 8.86227 73.4991 10.0596 74.332 10.0596C75.4252 10.0596 77.143 9.40886 78.002 8.65405C78.8869 7.89923 78.991 7.66497 79.0951 6.23342C79.1993 4.87995 79.1212 4.56761 78.6527 4.0991C78.028 3.47443 76.8827 3.39634 75.4252 3.91691Z" fill="#C1C4D0"/>
<path d="M39.5841 5.53075C38.517 5.73897 35.1073 6.9623 33.7278 7.66506C27.0125 10.9967 22.6658 17.9722 22.6658 25.3903C22.6658 30.9603 24.8261 34.9427 28.5742 36.3482C29.9016 36.8427 30.4482 36.8948 33.2072 36.7907C35.6018 36.7126 36.7991 36.5304 38.2827 36.0358C45.7268 33.5632 50.8023 28.3055 52.2078 21.6422C52.8846 18.3627 52.9887 15.942 52.4941 13.5995C51.7133 9.79938 50.2557 7.61301 47.5748 6.23351C46.3515 5.60883 45.909 5.53075 43.2281 5.47869C41.5883 5.45266 39.9485 5.47869 39.5841 5.53075ZM41.5102 12.7926C42.8116 13.4173 43.4884 14.8749 43.7747 17.6859C44.1911 21.8244 43.4103 25.2341 41.5623 27.4205C39.9745 29.3206 35.9922 30.3877 34.0401 29.4507C32.4784 28.7219 31.6976 26.7958 31.5674 23.3601C31.3332 17.8681 32.973 14.5105 36.5909 13.0529C38.3868 12.3241 40.2869 12.22 41.5102 12.7926Z" fill="#C1C4D0"/>
<path d="M38.1527 13.6774C34.6129 14.5884 32.921 17.1392 32.6087 22.0325C32.3744 26.0668 33.7019 28.7998 35.9143 28.7998C38.4911 28.7998 40.7555 27.4724 41.8487 25.338C42.4213 24.2188 42.5515 23.5421 42.6556 21.3297C42.9159 15.8117 42.2131 13.7815 39.9747 13.5733C39.402 13.5212 38.5952 13.5733 38.1527 13.6774ZM41.2501 14.8226C41.5624 15.0569 41.8227 15.8638 42.0569 17.5816C42.3693 19.6379 42.3693 20.2886 42.0569 22.0585C41.4843 25.4422 40.0528 27.2381 37.3718 28.019C35.628 28.5395 34.8471 28.3053 34.2485 27.108C33.832 26.249 33.7539 25.5463 33.7539 23.2037C33.806 18.0762 35.0033 15.9158 38.3869 14.8487C39.7925 14.4062 40.6774 14.4062 41.2501 14.8226Z" fill="#C1C4D0"/>
<path d="M67.6166 6.02514C65.8987 6.62379 65.4302 7.11833 63.9205 10.0595L62.4369 12.9487L61.1095 10.9185C59.8081 8.96633 59.73 8.88825 58.6368 8.81016C57.1532 8.70605 55.5395 9.64307 54.7326 11.0486C53.7175 12.8706 53.9778 13.4692 57.3094 17.3735L58.5848 18.8571L56.3984 22.7873C53.9778 27.108 53.5093 28.2533 53.7695 29.1122C54.1339 30.2314 54.6805 30.6218 55.9819 30.6218C57.9861 30.6218 59.0272 29.6588 60.7191 26.3011C61.4999 24.7655 62.2547 23.4641 62.3849 23.412C62.515 23.3599 62.9575 23.8805 63.374 24.5312C64.7014 26.6395 65.6905 27.4984 66.7576 27.4984C68.7097 27.4984 70.5317 25.9107 70.7399 24.0367C70.8961 22.6312 70.8441 22.527 68.2412 19.3256L66.159 16.7227L66.9658 15.2912C67.4344 14.4843 68.3714 12.8445 69.0741 11.6212C70.4276 9.27867 70.9221 7.30053 70.3235 6.57174C69.7509 5.895 68.6577 5.66075 67.6166 6.02514Z" fill="#C1C4D0"/>
<path d="M71.3387 9.07042C71.3387 9.25262 70.4017 11.0225 69.2564 13.0267L67.2002 16.6446L68.7098 18.4926C69.5427 19.5077 70.5318 20.8092 70.9222 21.3557L71.599 22.3708V15.5515C71.599 11.8294 71.5469 8.75808 71.4688 8.75808C71.3907 8.75808 71.3387 8.91425 71.3387 9.07042ZM71.2085 16.4364C71.2085 18.5187 71.1305 20.2105 71.0524 20.2105C70.8181 20.2105 68.4756 17.3474 68.4756 17.0351C68.4756 16.6967 70.8441 12.6623 71.0263 12.6623C71.1305 12.6623 71.2085 14.3542 71.2085 16.4364Z" fill="#C1C4D0"/>
<path d="M75.7375 10.5801C74.6703 10.8924 73.7333 11.5952 73.1607 12.5322C72.6922 13.313 72.6401 13.8076 72.6401 18.7529C72.6401 23.7764 72.6662 24.1408 73.1607 24.6353C74.0977 25.5723 76.6225 25.1298 78.054 23.7764C79.2513 22.6572 79.4075 21.7982 79.4075 16.5145C79.4075 11.6472 79.4075 11.5952 78.7568 10.9705C78.1061 10.2938 77.091 10.1636 75.7375 10.5801Z" fill="#C1C4D0"/>
<path d="M75.6072 28.4095C75.5291 28.6178 75.5291 28.878 75.6072 29.0082C75.6853 29.1644 75.3729 29.3466 74.8784 29.4246C73.8633 29.6068 73.7071 29.8932 73.8633 31.0644C74.0195 32.1056 74.4619 32.2097 74.4619 31.1946C74.4619 30.4918 74.8524 29.8411 75.2948 29.8411C75.3989 29.8411 75.5031 30.1795 75.5031 30.6219C75.5031 31.1425 75.6332 31.4028 75.8935 31.4028C76.1538 31.4028 76.2839 31.1165 76.2839 30.4918C76.2839 29.9973 76.414 29.5808 76.5442 29.5808C76.7004 29.5808 76.8045 29.9452 76.8045 30.3877C76.8045 31.4548 77.4292 31.2466 77.5333 30.1534C77.6374 29.1644 77.9757 29.0602 78.21 29.9712C78.5223 31.1685 80.084 30.5959 80.2402 29.2164C80.3443 28.2534 79.6416 27.7328 78.8867 28.2273C78.2621 28.6178 77.5853 28.6438 77.5853 28.2794C77.5853 27.7588 76.8565 28.0191 76.6743 28.5917L76.4661 29.1904L76.362 28.5917C76.2319 27.941 75.8154 27.8369 75.6072 28.4095Z" fill="#C1C4D0"/>
<path d="M71.5469 29.6067C71.1825 29.8149 71.0784 30.2053 71.0784 31.3246V32.7561L71.9113 32.5999C73.2127 32.3397 73.499 31.9232 73.2908 30.5177C73.1346 29.5286 73.0045 29.3204 72.536 29.3204C72.2496 29.3204 71.7811 29.4505 71.5469 29.6067ZM72.6401 31.3506C72.6401 31.6889 72.3277 31.9232 72.0674 31.767C71.8072 31.6109 72.0414 31.1424 72.4058 31.1424C72.536 31.1424 72.6401 31.2465 72.6401 31.3506Z" fill="#C1C4D0"/>
<path d="M80.7088 30.0233C80.7088 30.1795 80.2923 30.4918 79.7978 30.7261C78.8348 31.1946 78.6526 31.4028 79.2512 31.4028C79.7718 31.4028 81.1513 30.1795 80.917 29.9453C80.7869 29.8411 80.7088 29.8672 80.7088 30.0233Z" fill="#C1C4D0"/>
<path d="M77.4813 31.4288C77.1949 31.6891 77.0648 31.9233 77.1689 31.9233C77.5333 31.9233 78.3662 31.3767 78.3662 31.1425C78.3662 30.7521 78.0278 30.8562 77.4813 31.4288Z" fill="#C1C4D0"/>
<path d="M76.284 31.7932C76.0758 32.0274 76.0758 32.1836 76.2319 32.1836C76.5443 32.1836 76.9087 31.6891 76.7265 31.5069C76.6744 31.4548 76.4662 31.5589 76.284 31.7932Z" fill="#C1C4D0"/>
<path d="M74.5922 32.1837C74.4881 32.3398 74.2278 32.444 73.9936 32.3919C73.447 32.3138 71.3908 33.2769 71.8072 33.433C71.9634 33.4851 72.4319 33.3289 72.8744 33.1207C73.2908 32.8864 73.8895 32.7042 74.1758 32.7042C74.6964 32.7042 75.1649 32.2618 74.9046 32.0275C74.8265 31.9494 74.6964 32.0275 74.5922 32.1837Z" fill="#C1C4D0"/>
</svg>
