<svg width="102" height="40" viewBox="0 0 102 40" fill="none" xmlns="http://www.w3.org/2000/svg">
<path d="M5 0.757924C5 1.8276 9.45697 18.0064 9.8581 18.4075C10.081 18.6304 10.9278 18.7195 11.73 18.6304L13.2454 18.4967L14.8053 12.1678C15.6522 8.64677 16.4544 5.7943 16.5881 5.7943C16.7218 5.7943 17.2121 7.53253 17.7024 9.67187C18.1481 11.8558 18.8612 14.7083 19.2623 16.0453C19.9754 18.4521 20.02 18.4967 21.7137 18.4967H23.4073L25.7695 9.80558C27.1066 5.03662 28.1763 0.847063 28.1763 0.535075C28.1763 0.223087 27.5969 0.00023802 26.6609 0.00023802H25.1455L23.4519 6.77484L21.7582 13.594L20.956 10.2513C18.3264 -0.17804 18.4155 0.00023802 16.7664 0.00023802C15.9642 0.00023802 15.2065 0.178517 15.0728 0.401366C14.9391 0.624214 14.0922 3.56582 13.2454 6.90855C12.3986 10.2958 11.6409 13.1037 11.5518 13.1929C11.4626 13.3266 11.0169 11.9449 10.5712 10.1621C10.1701 8.37935 9.4124 5.34861 8.87757 3.43211C7.98617 0.00023802 7.98617 0.00023802 6.4708 0.00023802C5.40113 0.00023802 5 0.178517 5 0.757924Z" fill="#C1C4D0"/>
<path d="M56.1661 1.64927C55.5867 1.78298 55.3638 2.31782 55.3638 3.38749C55.3638 4.59087 55.1856 4.90286 54.4724 4.90286C53.7593 4.90286 53.5811 5.21485 53.5811 6.23995C53.5811 7.26506 53.7593 7.57705 54.4724 7.57705C55.3193 7.57705 55.3638 7.88903 55.3638 12.3906C55.3638 17.9172 55.765 18.7195 58.6174 18.7195C60.1328 18.7195 60.2665 18.6303 60.2665 17.3824C60.2665 16.3573 60.0882 16.0453 59.3751 16.0453C58.5283 16.0453 58.4837 15.7333 58.4837 11.8112C58.4837 7.88903 58.5283 7.57705 59.3751 7.57705C60.7568 7.57705 60.6231 5.03657 59.286 4.81372C58.4392 4.72458 58.2163 4.36802 58.1272 2.98636C57.9935 1.38185 57.7706 1.20357 56.1661 1.64927Z" fill="#C1C4D0"/>
<path d="M31.0289 5.34876C29.5581 5.92816 27.4188 8.69149 27.1068 10.4297C25.8588 17.026 33.7477 21.3493 38.7841 16.7586L40.3886 15.2878L38.9623 14.5301C37.8035 13.9507 37.5361 13.9061 37.2241 14.441C36.199 16.1346 33.3466 16.4912 31.5638 15.1095C29.2461 13.2822 29.9147 12.9256 35.575 12.9256H40.7897L40.4777 11.0537C40.0766 8.46864 38.9623 6.73042 37.0904 5.74988C35.4859 4.85849 32.6334 4.68021 31.0289 5.34876ZM36.1099 8.15665C36.4219 8.42407 36.9121 9.00347 37.135 9.44917C37.5361 10.2069 37.3133 10.2514 33.9705 10.2514C30.7615 10.2514 30.3604 10.1623 30.4941 9.44917C30.5832 9.04804 31.3409 8.33493 32.1877 7.9338C33.7031 7.13155 34.9511 7.22069 36.1099 8.15665Z" fill="#C1C4D0"/>
<path d="M43.9095 5.74993C42.305 6.77503 41.8147 7.93385 42.2158 9.80578C42.5278 11.3211 43.8649 12.168 47.4305 13.1931C49.3024 13.7725 49.6144 14.0399 49.4807 14.8422C49.3916 15.6444 48.9904 15.8673 47.4751 15.9564C45.9597 16.0455 45.4694 15.9118 45.0237 15.1987C44.3997 14.2182 42.2604 13.9062 41.7701 14.7084C41.2799 15.5107 42.8398 17.4272 44.578 18.1403C48.411 19.7448 52.6897 17.962 52.6897 14.7084C52.6897 12.5691 51.3972 11.4103 48.0099 10.3406C45.1574 9.49379 44.3997 8.42411 45.9597 7.62186C47.0739 6.99788 48.9459 7.66643 49.3024 8.82524C49.5253 9.44922 49.8818 9.58293 50.9069 9.44922C51.7092 9.36008 52.244 9.00352 52.244 8.60239C52.244 5.52708 47.1631 3.78886 43.9095 5.74993Z" fill="#C1C4D0"/>
<path d="M64.367 5.79426C62.7179 6.81937 61.2025 9.7164 61.158 11.8112C61.158 13.906 62.9407 16.9813 64.7235 17.9172C67.3532 19.2989 70.9187 18.8532 73.1027 16.8476C74.3506 15.6442 74.3506 14.9756 73.0581 14.3962C72.2113 13.9951 71.8101 14.1288 70.8296 14.9756C69.1359 16.4019 66.8183 16.4019 65.3921 14.9311C64.7681 14.3517 64.2778 13.6385 64.2778 13.3711C64.2778 13.1037 66.2389 12.9254 69.6708 12.9254H75.0637L74.7517 11.2318C73.9495 6.95308 71.7656 4.90287 68.0217 4.90287C66.64 4.90287 65.3029 5.21486 64.367 5.79426ZM70.5176 8.46845C72.033 9.98382 71.5873 10.2512 67.7989 10.2512C64.055 10.2512 63.9659 10.1621 65.5258 8.33474C66.4618 7.26506 69.3588 7.30963 70.5176 8.46845Z" fill="#C1C4D0"/>
<path d="M76.3118 11.8558V18.7642L77.7826 18.6305L79.2088 18.4967L79.3425 13.8615C79.3871 11.2764 79.6991 8.91425 79.9219 8.60226C80.1893 8.29027 81.0807 7.93371 81.9276 7.75543C83.2201 7.53258 83.4429 7.30974 83.4429 6.19549C83.4429 5.08125 83.2646 4.90297 82.195 4.90297C81.5264 4.90297 80.5013 5.21496 79.9665 5.61609C79.0751 6.24006 78.986 6.24006 78.986 5.61609C78.986 5.12582 78.5403 4.90297 77.6489 4.90297H76.3118V11.8558Z" fill="#C1C4D0"/>
<path d="M84.7798 11.8558V18.7642L86.2506 18.6305L87.6768 18.4967L87.8997 13.9506C88.1671 8.78054 88.7911 7.57715 91.2424 7.57715C93.6492 7.57715 94.1394 8.60226 94.1394 13.7278V18.2739H95.9222H97.705V14.0398C97.705 7.17603 96.2342 4.90297 91.7772 4.90297C90.4401 4.90297 89.415 5.21496 88.6128 5.83893L87.454 6.73033V5.83893C87.454 5.08125 87.1866 4.90297 86.1169 4.90297H84.7798V11.8558Z" fill="#C1C4D0"/>
<path d="M6.02515 21.661C5.89144 22.0621 5.89144 25.0483 5.98058 28.3019C6.15886 33.0709 6.38171 34.6308 7.09483 35.9679C8.29821 38.2855 10.393 39.4443 13.4683 39.4443C16.5436 39.4443 18.6384 38.2855 19.8863 35.8788C20.6886 34.3634 20.8223 33.1154 20.956 27.4996L21.1343 20.9479H19.3069H17.4796V27.1877C17.4796 30.7532 17.2567 33.8285 16.9893 34.4525C15.7414 37.1713 11.1952 37.1713 9.94729 34.4525C9.67987 33.8285 9.45702 30.7532 9.45702 27.1877V20.9479H7.89708C6.87198 20.9479 6.20343 21.2153 6.02515 21.661Z" fill="#C1C4D0"/>
<path d="M37.5359 21.7946C36.6891 23.3992 38.1599 24.9145 39.8981 24.246C41.6364 23.622 40.9678 20.9478 39.0959 20.9478C38.4719 20.9478 37.8034 21.3044 37.5359 21.7946Z" fill="#C1C4D0"/>
<path d="M28.3991 25.717C27.9534 25.8508 27.1066 26.2519 26.5272 26.6084C25.5912 27.2324 25.5021 27.2324 25.5021 26.5639C25.5021 26.0736 25.1009 25.8508 24.165 25.8508H22.8279V32.5362V39.2217H24.3878H25.9478V35.0767C25.9478 29.9512 26.438 28.7924 28.8002 28.6141C31.6973 28.3467 32.1875 29.1935 32.1875 34.631V39.2217H34.0149H35.8868L35.664 34.4081C35.4411 29.4609 34.7726 27.1878 33.1681 26.341C32.0984 25.7616 29.4688 25.4496 28.3991 25.717Z" fill="#C1C4D0"/>
<path d="M46.762 26.0289C44.4443 26.8757 43.5084 27.8117 42.617 30.1293C40.8788 34.72 44.2661 39.6672 49.2579 39.6672C51.4418 39.6672 54.4725 37.929 55.4531 36.1017C58.4838 30.3076 52.9126 23.8004 46.762 26.0289ZM52.0212 29.639C52.868 30.4413 53.1354 31.199 53.1354 32.5361C53.1354 36.3245 49.1242 37.929 46.4054 35.2548C44.7563 33.6058 44.7118 31.7338 46.2717 29.9065C47.7871 28.0791 50.3721 27.9454 52.0212 29.639Z" fill="#C1C4D0"/>
<path d="M63.2527 25.8508C62.5396 26.0736 61.6928 26.4747 61.3362 26.7867C60.846 27.1878 60.7123 27.1433 60.7123 26.5639C60.7123 26.0736 60.3111 25.8508 59.3752 25.8508H58.0381V32.5362V39.2217H59.598H61.158V34.8538C61.158 29.55 61.6482 28.5249 64.2779 28.5249C66.9075 28.5249 67.3977 29.55 67.3977 34.8538V39.2217H68.9577H70.5176V34.319C70.5176 29.1935 70.1165 27.589 68.512 26.5639C67.1749 25.6725 64.7681 25.3605 63.2527 25.8508Z" fill="#C1C4D0"/>
<path d="M37.5359 32.5362V39.2217H39.0958H40.6558V32.5362V25.8508H39.0958H37.5359V32.5362Z" fill="#C1C4D0"/>
</svg>
