<svg width="102" height="40" viewBox="0 0 102 40" fill="none" xmlns="http://www.w3.org/2000/svg">
<path d="M43.6138 19.5251V35.0503H46.7693H49.9248V19.5251V3.99996H46.7693H43.6138V19.5251Z" fill="#C1C4D0"/>
<path d="M67.0909 9.30134V14.6026L65.9802 13.7443C64.1626 12.3811 62.9004 12.0025 60.477 12.1287C58.8361 12.2297 58.0788 12.4064 57.0185 12.9365C54.4436 14.2744 52.3988 17.127 51.7172 20.3583C51.3133 22.2768 51.3638 26.114 51.8182 27.8558C52.8785 31.8696 55.3019 34.5203 58.8108 35.4543C60.6032 35.9339 61.4362 35.9087 63.3548 35.3028C64.4403 34.9747 65.3996 34.4445 66.1821 33.7629L67.3434 32.7279V33.8892V35.0504H70.3727H73.402V19.5252V4.00006H70.2465H67.0909V9.30134ZM64.8947 17.8591C65.3491 18.1368 66.0054 18.8436 66.3336 19.4495C66.8637 20.3835 66.9647 20.9137 67.0404 23.4381C67.1414 26.2149 67.1162 26.3916 66.4093 27.7043C65.8792 28.7393 65.4248 29.219 64.5918 29.6734C62.6227 30.7084 60.1235 30.2792 59.0128 28.7393C58.1797 27.5781 57.6749 25.0789 57.8263 23.0089C58.0535 20.1311 59.2148 18.0611 61.0323 17.3037C61.7392 17.0008 64.0616 17.329 64.8947 17.8591Z" fill="#C1C4D0"/>
<path d="M9.2565 5.94372C9.2565 6.06994 9.23125 7.55935 9.20601 9.30119L9.15552 12.4567L7.59038 12.5324L6 12.6082V14.7287V16.8492L7.59038 16.9249L9.15552 17.0007L9.20601 23.8166C9.23125 27.5527 9.33223 31.0112 9.40796 31.4656C9.63516 32.7025 11.1751 34.1667 12.7907 34.6463C14.0276 34.9998 18.8493 35.227 19.1522 34.9493C19.2027 34.8988 19.2279 33.8133 19.1775 32.5511L19.1017 30.2539H17.7133C16.6783 30.2539 16.2239 30.1276 15.8452 29.749C15.3656 29.2693 15.3403 28.9159 15.3403 23.0593V16.8744H17.2337H19.127V14.7287V12.5829H17.2337H15.3403V9.17497V5.76701H12.311C10.6449 5.76701 9.28174 5.84274 9.2565 5.94372Z" fill="#C1C4D0"/>
<path d="M27.8361 12.4063C25.9933 13.0374 24.5796 13.8957 23.2417 15.2589C17.9152 20.7368 19.3288 31.087 25.8418 34.3687C27.205 35.0503 30.2091 35.8076 31.5975 35.8076C32.8597 35.8076 35.6871 35.1008 36.8735 34.5202C39.0445 33.4094 41.165 30.8093 41.6952 28.6635L41.8466 27.9819H38.6911C36.823 27.9819 35.5356 28.0829 35.5356 28.2344C35.5356 28.3606 35.1822 28.8655 34.7783 29.3451C33.3141 31.0112 30.0324 31.1122 28.1895 29.5723C27.407 28.8907 26.6244 27.578 26.3467 26.3915L26.1952 25.71H34.1472H42.0991V24.372C42.0991 23.6652 41.9224 22.2767 41.7204 21.3175C40.8874 17.4299 38.8173 14.5015 35.8133 13.0121C34.3239 12.2801 33.92 12.2043 31.4965 12.1538C29.8052 12.1033 28.4672 12.2043 27.8361 12.4063ZM32.582 17.2279C33.1121 17.4299 33.7937 17.7833 34.0714 18.061C34.6016 18.5154 35.5103 20.2825 35.5356 20.8378C35.5356 21.0903 34.4501 21.166 30.9916 21.166C25.8671 21.166 25.9428 21.1912 27.0283 19.2979C28.1895 17.2532 30.3605 16.4453 32.582 17.2279Z" fill="#C1C4D0"/>
<path d="M81.7324 12.482C78.9051 13.2393 76.7341 15.1326 76.0525 17.4803C75.3709 19.7523 75.2699 19.6766 78.5012 19.6009L81.3285 19.5251L81.5305 18.6921C82.0858 16.5968 86.3521 15.89 88.094 17.6318C89.6086 19.1465 88.6998 20.4339 85.6958 20.9136C79.8391 21.8981 78.0468 22.5292 76.4059 24.1701C75.0932 25.4575 74.6641 26.5935 74.6641 28.6383C74.6641 31.4404 75.8758 33.3589 78.375 34.5959C79.9653 35.3785 80.2683 35.429 82.616 35.429C84.888 35.429 85.2919 35.3532 86.6046 34.7221C87.4124 34.3182 88.1949 33.7628 88.3716 33.5104C88.7251 32.9298 89.0532 32.8793 89.0532 33.4094C89.0532 33.6114 89.1795 34.0658 89.3562 34.4192C89.6339 35.0503 89.6591 35.0503 92.6379 35.0503C95.6672 35.0503 96.1216 34.8988 95.3138 34.091C95.0614 33.8386 94.9604 31.6928 94.8594 25.7604C94.7332 18.0862 94.7079 17.7075 94.1526 16.4958C93.1176 14.2491 91.3757 12.9616 88.5988 12.3558C86.7813 11.9771 83.4238 12.0276 81.7324 12.482ZM88.8008 26.1896C88.8008 28.5373 88.2707 29.5723 86.655 30.3801C85.4433 30.9607 82.8937 31.0617 81.9344 30.5316C80.2178 29.6228 80.3945 27.1489 82.2626 26.2148C82.7674 25.9371 84.1811 25.4828 85.4181 25.1798C86.655 24.8769 87.8415 24.5487 88.0435 24.4225C88.7251 24.0438 88.8008 24.1701 88.8008 26.1896Z" fill="#C1C4D0"/>
</svg>
