<svg width="102" height="40" viewBox="0 0 102 40" fill="none" xmlns="http://www.w3.org/2000/svg">
<path d="M24.3229 10.3429C15.3194 19.3464 15 19.7057 15 20.4244C15 21.4226 15.4392 22.2411 16.1379 22.5405C16.5172 22.7002 17.9346 22.7601 20.4899 22.7202L24.263 22.6603L29.2139 12.0797C31.9289 6.25046 34.1648 1.37941 34.1648 1.23966C34.1648 1.11988 34.045 1.0001 33.9053 1.0001C33.7655 1.0001 29.4534 5.1924 24.3229 10.3429Z" fill="#C1C4D0"/>
<path d="M70.498 19.506V27.3516H72.1949H73.8918V24.4968C73.8918 21.2428 74.1114 20.5041 75.2892 19.9252C76.6268 19.2465 78.0242 19.5459 78.683 20.604C79.0423 21.1829 79.0823 21.6221 79.0823 24.2972V27.3516H80.7792H82.476V23.7981C82.476 20.3045 82.4561 20.2047 81.937 19.1466C81.0387 17.3899 79.4815 16.6512 77.046 16.8109C76.1277 16.8908 75.449 17.0704 74.8101 17.4298L73.8918 17.9289L73.8519 14.8346L73.792 11.7402L72.135 11.7203L70.498 11.6804V19.506Z" fill="#C1C4D0"/>
<path d="M84.1529 11.7602C84.1129 11.8001 84.073 15.3336 84.073 19.6058V27.3516H85.8697H87.6664L87.6265 19.5459L87.5666 11.7402L85.9096 11.7203C84.9913 11.7003 84.1928 11.7203 84.1529 11.7602Z" fill="#C1C4D0"/>
<path d="M46.8015 12.7583C44.4459 13.5568 43.3479 14.8944 43.3479 16.9506C43.3479 18.1683 43.6873 18.907 44.5656 19.6456C45.4041 20.3643 46.2026 20.6638 48.8777 21.3425C51.6726 22.0612 52.1317 22.3207 52.1317 23.259C52.1317 23.8379 52.012 24.0376 51.4929 24.357C50.2552 25.1156 47.0012 24.7962 44.905 23.7381L44.1464 23.3588L43.5475 24.5766C42.9486 25.7344 42.9486 25.8143 43.288 26.0738C44.4858 26.9921 47.64 27.6509 50.0755 27.4912C53.1099 27.3115 55.3858 25.7344 55.6653 23.5984C56.0246 20.9632 54.707 19.7255 50.4548 18.6874C49.277 18.3879 48.0393 18.0286 47.6999 17.8489C46.2426 17.0903 46.6418 15.6929 48.4585 15.2138C49.6164 14.9143 51.6926 15.1539 53.1099 15.7927C53.5891 15.9923 54.0083 16.1521 54.0482 16.1321C54.0682 16.0922 54.3077 15.5132 54.6072 14.8145L55.1063 13.5568L54.2678 13.1975C52.2116 12.3191 48.6781 12.0995 46.8015 12.7583Z" fill="#C1C4D0"/>
<path d="M28.8944 17.2102C28.6349 17.7891 26.399 22.6203 23.9036 27.9305C21.4281 33.2408 19.3918 37.6726 19.3918 37.7525C19.3918 37.8323 19.4917 37.9721 19.6114 38.0519C19.871 38.1917 37.818 20.3844 38.2772 19.526C38.6565 18.8073 38.6365 17.7692 38.2372 17.1902C37.6184 16.3318 36.8398 16.1721 32.9669 16.1721H29.3735L28.8944 17.2102Z" fill="#C1C4D0"/>
<path d="M60.9156 16.9706C59.8176 17.2102 59.2187 17.4897 58.4402 18.1884C57.4021 19.0867 56.883 20.2246 56.7633 21.7818C56.6634 23.279 56.923 24.2772 57.7215 25.455C59.1589 27.5711 62.8321 28.21 64.9682 26.7127L65.5072 26.3334V26.8325C65.5072 27.3515 65.5272 27.3515 67.1043 27.3515H68.7013V22.1611V16.9706H67.0044C65.3275 16.9706 65.3076 16.9706 65.3076 17.4697V17.9887L64.7686 17.5895C63.8303 16.9107 62.3131 16.6712 60.9156 16.9706ZM64.6088 20.1647C65.7268 21.2028 65.6669 23.2591 64.4891 24.2373C64.0099 24.6365 63.6706 24.7563 62.872 24.7563C61.1153 24.7563 60.157 23.6384 60.3766 21.8217C60.4565 21.0631 60.6162 20.7437 61.2151 20.2047C61.9138 19.5658 62.0336 19.5259 63.0317 19.6058C63.8103 19.6657 64.2495 19.8254 64.6088 20.1647Z" fill="#C1C4D0"/>
</svg>
