<svg width="102" height="40" viewBox="0 0 102 40" fill="none" xmlns="http://www.w3.org/2000/svg">
<path d="M43.3131 0.502883C42.9017 0.800011 42.376 1.3257 42.1703 1.71425C41.9418 2.07995 40.4104 4.75409 38.7419 7.6568C37.0506 10.5367 35.5421 13.2794 35.3592 13.7365C34.9707 14.7193 34.9021 14.5365 38.2848 20.4104C39.9761 23.3817 40.6847 24.4331 40.8675 24.2502C41.0047 24.1131 41.5532 23.2903 42.056 22.4446L42.9703 20.9133L48.8214 20.8447C55.5639 20.7761 54.8554 21.0504 56.5696 18.0563C57.0953 17.1192 57.7352 15.9992 57.9638 15.5878C58.2152 15.1764 58.3981 14.6507 58.3981 14.4222C58.3981 13.8279 55.7468 9.1653 55.0382 8.50247C54.4897 7.99964 54.3754 7.99964 49.0043 7.99964C44.3874 7.99964 43.5417 7.95393 43.5417 7.67966C43.5417 7.15397 45.1187 4.5941 45.5987 4.34269C45.8501 4.20555 48.1814 4.11413 51.3584 4.11413C55.6782 4.11413 56.7981 4.18269 57.1638 4.45697C57.4381 4.63981 58.1924 5.7369 58.8552 6.90256C60.7751 10.2852 60.7979 10.331 61.6893 11.8394C63.2892 14.5365 63.3578 14.0565 60.4551 19.1534C59.038 21.6218 57.6667 23.8845 57.4153 24.1588C56.9581 24.6845 56.8667 24.6845 51.1756 24.6845H45.4159L44.5016 26.2387C42.9017 28.9129 42.2617 28.6843 51.0384 28.7529C57.2324 28.7986 58.7409 28.7529 59.2666 28.4786C59.6551 28.2729 60.3408 27.3587 61.1179 26.0102C67.129 15.5878 67.5405 14.8564 67.5405 14.3307C67.5405 14.1479 66.032 11.4052 64.2035 8.20535C62.3521 5.00551 60.6837 2.07995 60.478 1.71425C60.2494 1.3257 59.7237 0.800011 59.3123 0.502883C58.5809 5.14826e-05 58.4438 5.14826e-05 51.3127 5.14826e-05C44.1816 5.14826e-05 44.0445 5.14826e-05 43.3131 0.502883ZM53.3697 13.3022L53.9411 14.3993L53.3697 15.4735L52.7983 16.5706L46.9244 16.6392L41.0732 16.6849L40.5933 16.0907C40.319 15.7478 40.0447 15.2221 39.9761 14.925C39.7933 14.2165 39.999 13.4622 40.5933 12.708L41.0732 12.1137L46.9244 12.1594L52.7983 12.228L53.3697 13.3022Z" fill="#C1C4D0"/>
<path d="M20.0686 32.5928C19.9771 32.8213 20.0686 33.0499 20.2971 33.187C20.8457 33.4841 20.8685 38.8553 20.3428 38.8553C20.16 38.8553 20 39.061 20 39.3124C20 39.7467 20.16 39.7695 22.1485 39.7695C24.0912 39.7695 24.3883 39.7238 24.9369 39.2438C25.7597 38.5353 25.8054 37.0268 25.0283 36.3868C24.5483 35.9983 24.5255 35.9754 24.9369 35.1298C25.7826 33.347 24.5483 32.2271 21.7599 32.2271C20.5485 32.2271 20.1828 32.2956 20.0686 32.5928ZM23.8398 33.667C24.1826 33.9413 24.2055 34.7869 23.8398 35.1526C23.6798 35.3126 23.2227 35.4269 22.8113 35.4269C22.1942 35.4269 22.0342 35.3126 21.9199 34.8326C21.8285 34.5127 21.8742 34.0098 22.0342 33.6898C22.2399 33.2327 22.377 33.1642 22.9027 33.2784C23.2684 33.3699 23.6798 33.5299 23.8398 33.667ZM23.7255 36.5468C24.5026 36.844 24.7083 37.5982 24.2284 38.3067C23.9084 38.7867 23.7027 38.8781 22.9027 38.8096C21.9656 38.741 21.9428 38.7182 21.8742 37.8725C21.7599 36.5011 22.3999 36.044 23.7255 36.5468Z" fill="#C1C4D0"/>
<path d="M66.7862 32.3871C66.4891 32.6842 66.6262 33.0956 67.0833 33.2099C67.5176 33.3241 67.5405 33.5299 67.5405 35.9983C67.5405 38.4667 67.5176 38.6724 67.0833 38.7867C66.8319 38.8553 66.6262 39.1067 66.6262 39.3353C66.6262 39.701 66.8091 39.7695 67.9519 39.7695C68.6833 39.7695 69.3461 39.701 69.4375 39.6324C69.6432 39.4038 69.3461 38.8553 69.0032 38.8553C68.7747 38.8553 68.6833 38.581 68.6833 37.9411C68.6833 37.0268 68.6833 37.0268 69.5975 37.0268C71.4717 37.0268 72.4088 36.2726 72.4316 34.7412C72.4545 33.4384 71.9745 32.7985 70.7632 32.4556C69.8489 32.2042 67.0148 32.1356 66.7862 32.3871ZM71.0374 33.7584C72.0202 34.6498 71.106 36.1811 69.6432 36.0669C68.7975 35.9983 68.7975 35.9983 68.729 34.8784C68.6147 33.2556 68.7518 33.0499 69.7803 33.2556C70.2375 33.347 70.8089 33.5756 71.0374 33.7584Z" fill="#C1C4D0"/>
<path d="M38.6048 32.7984C38.4448 33.2098 38.6734 33.5984 39.0848 33.5984C39.4277 33.5984 39.7248 32.9813 39.5191 32.6613C39.3362 32.3413 38.742 32.4099 38.6048 32.7984Z" fill="#C1C4D0"/>
<path d="M26.7881 34.6497C26.5139 34.9468 26.6282 35.4268 26.971 35.4268C27.2453 35.4268 27.3138 35.7925 27.3138 37.3239C27.3138 38.9009 27.3824 39.3123 27.7252 39.6095C28.2509 40.0894 28.8223 40.0894 29.6451 39.678C30.0108 39.4723 30.3308 39.4266 30.3994 39.5638C30.4908 39.678 30.9022 39.7695 31.3365 39.7695C32.2279 39.7695 32.4107 39.2666 31.6565 38.8552C31.2451 38.6495 31.1994 38.3752 31.1994 36.5468V34.4897L30.468 34.5583C29.6909 34.6269 29.2109 35.4268 29.9194 35.4268C30.2165 35.4268 30.2851 35.724 30.2851 36.981C30.2851 38.421 30.2394 38.5809 29.6909 38.8552C28.6623 39.4266 28.3652 38.9695 28.2281 36.661C28.1138 34.6954 28.0909 34.6269 27.5424 34.5583C27.2224 34.5126 26.8796 34.5583 26.7881 34.6497Z" fill="#C1C4D0"/>
<path d="M33.5307 34.8555C33.165 35.1298 33.0278 35.4497 33.0278 36.0897C33.0278 37.0268 33.2564 37.2096 35.0392 37.6896C35.862 37.9182 36.022 38.0553 35.9534 38.4667C35.8391 39.2438 34.582 39.2895 33.9192 38.5353C33.3021 37.8268 33.0278 37.9639 33.0278 38.9696V39.7238L34.3992 39.8838C35.9991 40.0666 36.7534 39.7238 37.0048 38.741C37.2333 37.8496 36.6391 37.0954 35.4963 36.7754C34.9477 36.6382 34.3763 36.4783 34.2392 36.4325C33.8278 36.3183 33.8735 35.4954 34.3078 35.3355C34.9706 35.084 35.3363 35.1983 35.9077 35.8154C36.5705 36.524 36.9819 36.2954 36.8676 35.2897C36.7991 34.6726 36.7305 34.6498 35.4277 34.5812C34.4449 34.5355 33.8964 34.6041 33.5307 34.8555Z" fill="#C1C4D0"/>
<path d="M38.102 34.8098C37.8963 35.0383 37.9649 35.1983 38.2849 35.4955C38.9477 36.0669 38.9477 38.3525 38.2849 38.9239C37.5992 39.4953 37.9192 39.7695 39.222 39.7695C40.1819 39.7695 40.3419 39.701 40.3419 39.3124C40.3419 39.061 40.1819 38.8553 39.9991 38.8553C39.7248 38.8553 39.6563 38.5125 39.6563 37.0497C39.6563 36.044 39.5877 35.0841 39.5191 34.8784C39.3591 34.4441 38.4449 34.3984 38.102 34.8098Z" fill="#C1C4D0"/>
<path d="M41.119 34.7869C41.0276 34.924 41.119 35.1526 41.3247 35.3126C41.8504 35.7011 41.8961 38.741 41.3704 38.9467C41.1876 39.0153 41.0276 39.221 41.0276 39.4267C41.0276 39.7238 41.2561 39.7695 42.2161 39.7238C43.4503 39.6552 43.9989 39.1524 43.1075 38.9238C42.6961 38.8096 42.6275 38.6267 42.6275 37.5753C42.6275 36.1811 43.1989 35.3354 44.0674 35.4726C44.5246 35.5411 44.5703 35.7011 44.6845 37.5982L44.7988 39.6552L45.6674 39.7238C46.3073 39.7695 46.513 39.7009 46.513 39.4495C46.513 39.2667 46.3073 38.9924 46.0559 38.8553C45.6674 38.6496 45.5988 38.3753 45.5988 36.7754C45.5988 35.0612 45.5759 34.9469 45.0274 34.6955C44.5474 34.4898 44.2731 34.5126 43.6103 34.8326C42.8561 35.1983 42.7646 35.1983 42.5818 34.8783C42.3532 34.4441 41.3476 34.3983 41.119 34.7869Z" fill="#C1C4D0"/>
<path d="M48.1357 35.084C47.3586 35.7468 47.0386 37.0953 47.3814 38.2838C47.61 39.1067 48.8442 39.998 49.7584 39.998C50.6498 39.998 51.9755 39.4266 52.1583 38.9467C52.3869 38.3524 51.7926 38.2153 50.9241 38.6495C50.0099 39.1067 49.0956 39.0152 48.6385 38.421C48.0214 37.621 48.2728 37.4839 50.2841 37.4839H52.2269V36.6611C52.2269 34.7412 49.7127 33.7812 48.1357 35.084ZM50.947 35.8611C51.5412 36.5239 51.2212 36.7982 49.827 36.7982C48.4328 36.7982 48.2042 36.6154 48.7071 35.9297C49.1642 35.2897 50.3984 35.244 50.947 35.8611Z" fill="#C1C4D0"/>
<path d="M53.9868 34.9241C53.7811 35.1526 53.5983 35.7012 53.5983 36.1583C53.5983 37.0268 53.804 37.1868 55.6096 37.7354C56.4096 37.9639 56.5696 38.1239 56.5239 38.4896C56.4096 39.2667 55.1296 39.2667 54.4668 38.5125C54.0097 37.9868 53.9183 37.9639 53.6897 38.2611C53.5526 38.4668 53.484 38.8782 53.5297 39.1753C53.6212 39.6553 53.804 39.7467 54.9925 39.8838C56.7981 40.0895 57.4838 39.701 57.4838 38.4211C57.4838 37.3697 57.141 37.0497 55.701 36.684C54.9011 36.4783 54.604 36.2954 54.5582 35.9298C54.4211 34.9927 55.9982 35.1069 56.7296 36.0897C57.1181 36.6154 57.5295 36.1126 57.4381 35.2898C57.3695 34.6727 57.3238 34.6498 55.861 34.5812C54.6268 34.5127 54.3068 34.5812 53.9868 34.9241Z" fill="#C1C4D0"/>
<path d="M59.4723 34.764C58.9466 35.0611 58.6266 35.9068 58.7637 36.5239C58.9009 37.0038 59.358 37.2781 60.8665 37.7352C61.6664 37.9638 61.8264 38.1238 61.7807 38.4895C61.6664 39.2666 60.4093 39.2666 59.7008 38.4895L59.1066 37.8495L58.8323 38.4666C58.4209 39.3809 58.6951 39.7009 60.0437 39.8608C61.5293 40.0437 62.4435 39.7466 62.7407 38.9695C63.1749 37.8038 62.4892 36.981 60.7522 36.6153C60.1808 36.501 59.8608 36.2953 59.8151 36.021C59.6322 35.0839 61.1636 35.0382 61.8721 35.9525C62.3521 36.5924 62.8092 36.2267 62.6949 35.2896C62.6264 34.6725 62.5578 34.6497 61.255 34.5811C60.5008 34.5583 59.7008 34.6268 59.4723 34.764Z" fill="#C1C4D0"/>
<path d="M73.2544 34.9469C73.2544 35.1755 73.4144 35.4269 73.5972 35.5183C73.8486 35.6097 73.9401 36.0212 73.9401 37.1411C73.9401 38.261 73.8486 38.6724 73.5972 38.7639C73.4144 38.8553 73.2544 39.1067 73.2544 39.3353C73.2544 39.701 73.4372 39.7695 74.5115 39.7695C75.5857 39.7695 75.7686 39.701 75.7686 39.3353C75.7686 39.1067 75.5628 38.8553 75.3114 38.7867C74.9457 38.6953 74.8543 38.4667 74.8543 37.7125C74.8543 36.4783 75.1743 35.9069 76.1342 35.5183C76.5685 35.3355 76.9114 35.0841 76.9114 34.9698C76.9114 34.5584 76.2257 34.4441 75.6086 34.7184C75.1972 34.9012 74.9457 34.9241 74.7629 34.7412C74.6486 34.6269 74.2372 34.5127 73.8944 34.5127C73.4144 34.5127 73.2544 34.6269 73.2544 34.9469Z" fill="#C1C4D0"/>
<path d="M78.4427 34.9926C77.2541 35.9068 77.1399 38.101 78.237 39.1981C79.6997 40.6608 81.8939 40.0437 82.5796 37.9867C82.831 37.2324 82.7396 36.6839 82.1453 35.5182C81.5968 34.4669 79.494 34.1469 78.4427 34.9926ZM81.1397 35.8839C81.6654 36.4553 81.6882 38.0553 81.1854 38.5809C80.6597 39.1066 79.2883 39.0609 78.8541 38.4895C78.3741 37.8496 78.4198 36.4325 78.9683 35.8839C79.5626 35.2897 80.614 35.2897 81.1397 35.8839Z" fill="#C1C4D0"/>
</svg>
