<svg width="102" height="40" viewBox="0 0 102 40" fill="none" xmlns="http://www.w3.org/2000/svg">
<path d="M34.1461 0.188421C33.9278 0.333948 34.0005 0.600749 34.4371 1.25562C34.7767 1.76497 35.0435 2.20155 35.0435 2.27432C35.0435 2.34708 35.4315 2.95345 35.8924 3.60832C36.3532 4.23894 36.7413 4.84531 36.7413 4.94232C36.7413 5.03934 37.1536 5.71847 37.663 6.42186L38.5604 7.7316L42.3926 7.75586C45.4972 7.75586 46.2006 7.6831 46.2006 7.41629C46.2006 6.73717 42.0288 0.455222 41.4224 0.212675C40.7191 -0.0541253 34.5584 -0.0783799 34.1461 0.188421Z" fill="#C1C4D0"/>
<path d="M31.4781 1.98318C31.3811 2.15296 31.187 2.49253 31.0415 2.71082C30.9202 2.92911 29.95 4.4329 28.9071 6.0337L26.991 8.96851L28.9071 11.9033C29.95 13.5041 30.9202 15.0079 31.0415 15.2262C31.187 15.4445 31.4296 15.7841 31.6236 15.9781C31.9147 16.3177 31.9874 16.2934 32.3027 15.8811C33.3457 14.4743 36.7413 9.13829 36.7413 8.92C36.7413 8.79873 36.3775 8.19236 35.9652 7.56174C35.5286 6.93112 35.1163 6.32476 35.0435 6.17923C34.6312 5.33032 32.0602 1.69213 31.8904 1.69213C31.7691 1.69213 31.5993 1.83765 31.4781 1.98318Z" fill="#C1C4D0"/>
<path d="M49.4264 8.11958C49.0141 8.28936 48.5532 8.65318 48.4077 8.94424C48.0681 9.5506 48.0681 14.4258 48.3834 15.0564C48.82 15.8568 49.9357 16.2449 51.7791 16.2449C54.2288 16.2449 55.0292 15.7113 55.3203 13.8679C55.5385 12.4126 55.199 12.0731 53.5254 12.1701C52.0216 12.2429 51.5123 12.7765 52.7978 12.8977C53.5012 12.9705 53.5982 13.0675 53.6709 13.7952C53.8407 15.5657 51.5123 16.4874 50.2025 15.1534C49.6447 14.6198 49.5962 14.4015 49.5962 12.0488C49.5962 8.94424 49.863 8.45914 51.5365 8.41063C52.1429 8.41063 53.0403 8.45914 53.5254 8.55616C54.2773 8.70169 54.4228 8.67743 54.3016 8.41063C54.059 7.7315 50.7604 7.53747 49.4264 8.11958Z" fill="#C1C4D0"/>
<path d="M69.5577 8.09532C69.1454 8.28936 68.6845 8.65318 68.539 8.94424C68.3935 9.21104 68.2722 10.8603 68.2722 12.825V16.2449H68.9999C69.7032 16.2449 69.8973 15.9538 69.7517 15.1777C69.6305 14.5471 70.0428 13.7709 70.6492 13.5284C71.2313 13.2858 71.2555 13.2373 70.819 13.1403C69.8003 12.922 69.6547 12.6067 69.8245 10.8118C69.9943 8.96849 70.2126 8.55616 71.013 8.43489C71.304 8.38638 71.5223 8.24085 71.4981 8.11958C71.4011 7.73151 70.4066 7.73151 69.5577 8.09532Z" fill="#C1C4D0"/>
<path d="M65.4102 12.0488L65.483 16.1235H66.0893H66.6957V12.1215V8.11951L66.0166 8.04675L65.3617 7.97399L65.4102 12.0488Z" fill="#C1C4D0"/>
<path d="M56.63 12.3155C56.63 15.7112 57.4062 16.3418 61.3839 16.1963L63.7851 16.0992V13.4312V10.7875L63.1302 10.7147L62.4511 10.642V12.8006C62.4511 15.3716 62.1843 15.7597 60.4622 15.7597C58.8129 15.7597 58.3763 15.1533 58.2793 12.7279L58.2066 10.7875L57.4304 10.7147L56.63 10.642V12.3155Z" fill="#C1C4D0"/>
<path d="M24.808 12.5582C24.3229 13.3101 23.2557 14.9351 22.4553 16.1479L21 18.3793L21.8489 19.6648C24.711 24.1519 25.7296 25.6799 25.8752 25.6799C26.1905 25.7284 30.6776 18.9371 30.6776 18.4278C30.6776 18.2338 29.7559 16.6572 28.6159 14.9109C27.476 13.1888 26.5543 11.7093 26.5543 11.6122C26.5543 11.491 25.9479 11.1514 25.7539 11.1514C25.7296 11.1514 25.2931 11.782 24.808 12.5582Z" fill="#C1C4D0"/>
<path d="M49.7175 18.5977C48.0682 18.7675 47.8984 19.107 47.8984 22.1146C47.8984 23.5699 48.0197 24.9766 48.141 25.2434C48.6261 26.1409 51.3183 26.7715 52.6038 26.2864C53.4042 25.9711 52.9434 25.7285 51.8519 25.8741C50.8332 25.9711 50.5907 25.9226 50.0086 25.3647C49.4265 24.8068 49.3295 24.5886 49.4022 23.5699L49.475 22.4299L50.6392 22.3571C52.1187 22.2601 52.046 21.7508 50.5422 21.581L49.475 21.4597L49.4022 20.344L49.3295 19.2283L50.4694 19.0585C51.1 18.9857 51.949 18.913 52.3613 18.913C52.9434 18.913 53.0162 18.8402 52.7494 18.6704C52.3855 18.4279 51.5609 18.4279 49.7175 18.5977Z" fill="#C1C4D0"/>
<path d="M54.3016 18.9856C54.253 19.1554 54.2288 20.829 54.253 22.6723C54.3258 26.0437 54.3258 26.068 54.9079 26.1407C55.2232 26.1892 55.587 26.0922 55.6841 25.8982C55.9266 25.5343 55.9751 19.6405 55.7568 19.0584C55.587 18.5975 54.4713 18.549 54.3016 18.9856Z" fill="#C1C4D0"/>
<path d="M57.0424 19.01C56.7756 19.6891 57.1394 20.1499 57.8185 20.0772C58.3036 20.0287 58.4491 19.8831 58.4491 19.398C58.4491 18.913 58.3036 18.7674 57.8185 18.7189C57.4062 18.6704 57.1151 18.7917 57.0424 19.01Z" fill="#C1C4D0"/>
<path d="M60.6563 19.0583C60.5835 19.2524 60.5835 19.689 60.6563 20.0285C60.7533 20.4409 60.6805 20.6591 60.4137 20.7562C59.9286 20.9502 59.9044 21.4353 60.4137 21.8476C60.7048 22.0902 60.7776 22.5753 60.7533 23.8608C60.6805 26.2135 60.6805 26.1892 61.3354 26.1892C62.0873 26.1892 62.1601 25.9224 62.0145 24.2003C61.869 22.357 62.0631 21.6778 62.8149 21.4838C63.6154 21.2898 63.5911 20.9017 62.7664 20.8047C62.2328 20.7562 62.0873 20.6106 62.0631 20.1255C61.9903 18.743 61.966 18.6703 61.3839 18.6703C61.0686 18.6703 60.7291 18.8401 60.6563 19.0583Z" fill="#C1C4D0"/>
<path d="M33.7336 19.3738C33.5881 19.5921 37.8327 26.4319 38.2935 26.723C38.439 26.82 40.2339 26.917 42.2713 26.917C45.7154 26.917 45.958 26.8927 45.958 26.4562C45.958 26.2136 45.7882 25.874 45.5941 25.7043C45.4001 25.5345 45.2303 25.3162 45.2303 25.1949C45.2303 25.0736 44.8422 24.443 44.3814 23.7881C43.9206 23.1575 43.5325 22.5512 43.5325 22.4784C43.5325 22.4056 43.0232 21.6052 42.4168 20.7321L41.3011 19.1555H37.5901C35.5285 19.1555 33.8064 19.2525 33.7336 19.3738Z" fill="#C1C4D0"/>
<path d="M30.6049 22.2359C30.0228 23.1575 28.9798 24.7826 28.2765 25.8983L26.991 27.8872L28.713 30.5552C30.993 34.0721 31.7449 35.1393 31.9147 35.1636C32.1087 35.1636 36.5715 28.4208 36.6928 27.96C36.7898 27.5961 32.2057 20.6108 31.8904 20.6108C31.7691 20.6108 31.187 21.3384 30.6049 22.2359Z" fill="#C1C4D0"/>
<path d="M57.2606 21.0231C57.1879 21.1202 57.1151 22.3086 57.1151 23.6911V26.2136L57.7942 26.1409L58.4491 26.0681V23.6669C58.4491 21.4355 58.4249 21.2657 57.9155 21.0716C57.6487 20.9746 57.3334 20.9504 57.2606 21.0231Z" fill="#C1C4D0"/>
<path d="M65.5557 21.2414C65.1919 21.4354 64.7796 21.7993 64.634 22.0661C64.3187 22.6724 64.3187 24.3217 64.6583 25.0736C64.9736 25.7528 66.5259 26.4319 67.8357 26.4319C68.8058 26.4319 70.4552 25.8255 70.4552 25.4617C70.4552 25.1221 69.9458 25.1706 69.2424 25.583C68.2965 26.1166 67.2293 26.0196 66.5017 25.3647C65.3617 24.2975 65.7983 24.0064 68.5148 24.0064C71.1343 24.0064 71.3041 23.9094 71.013 22.5269C70.7947 21.4112 69.7275 20.8533 67.7871 20.8533C66.8655 20.8776 65.9438 21.0231 65.5557 21.2414ZM69.0969 21.7993C69.3394 22.0661 69.485 22.4784 69.4365 22.7209C69.3637 23.0847 69.1212 23.1575 67.6659 23.1575C66.0166 23.1575 65.9681 23.1333 66.0408 22.5754C66.0651 22.2601 66.2834 21.8478 66.5259 21.678C67.1565 21.1929 68.6118 21.2657 69.0969 21.7993Z" fill="#C1C4D0"/>
<path d="M37.6628 29.5123C35.965 32.1075 33.8306 35.6244 33.8306 35.867C33.8306 36.061 34.9705 36.1338 37.687 36.1338H41.5193L43.7507 32.6169C44.9877 30.6765 45.9336 29.0029 45.8366 28.8574C45.7396 28.7119 44.2115 28.6149 41.9801 28.6149H38.2692L37.6628 29.5123Z" fill="#C1C4D0"/>
<path d="M48.6016 29.2454C48.068 29.8032 48.0195 30.07 48.0195 32.2529C48.0195 34.4358 48.068 34.6784 48.6016 35.2605C49.1352 35.8426 49.3535 35.8911 51.1484 35.8911C53.5496 35.8911 54.1317 35.5273 54.2287 34.072C54.3015 32.4955 54.3257 32.4955 52.8705 32.4955C51.5122 32.4955 51.0028 32.8835 52.2156 33.0291C52.7249 33.0776 52.8947 33.2474 52.9432 33.781C53.0645 34.7997 52.4096 35.406 51.1726 35.406C49.6688 35.406 49.4748 35.0422 49.4748 32.1802C49.4748 29.9487 49.5233 29.7304 50.0327 29.3909C50.7603 28.9058 50.7118 28.6147 49.8871 28.6147C49.4506 28.6147 48.9655 28.8573 48.6016 29.2454Z" fill="#C1C4D0"/>
<path d="M52.046 28.8329C51.8034 28.9785 51.9247 29.0997 52.4825 29.221C53.3314 29.3908 53.6225 29.2938 53.3557 28.8814C53.1617 28.5661 52.5068 28.5419 52.046 28.8329Z" fill="#C1C4D0"/>
<path d="M56.3389 30.9673L55.4172 31.0644V33.4898V35.9153L56.1934 35.8425L56.9695 35.7698L56.8968 34.3145C56.824 32.4469 57.1393 31.598 58.0125 31.3797C58.6188 31.2099 58.6188 31.1856 58.2065 31.0159C57.9397 30.9188 57.6244 30.8461 57.4789 30.8461C57.3576 30.8703 56.824 30.9188 56.3389 30.9673Z" fill="#C1C4D0"/>
<path d="M61.0928 31.0402C60.2439 31.3798 59.7831 32.2529 59.7831 33.4899C59.7831 34.3873 59.9044 34.7511 60.4137 35.2605C60.9958 35.8426 61.2384 35.8911 62.9362 35.8911C64.4642 35.8911 64.9251 35.7941 65.4587 35.3818C66.0165 34.9452 66.0893 34.7026 66.0893 33.4899C66.0893 32.6895 65.9438 31.9134 65.7255 31.6223C65.3374 31.0159 64.0519 30.7006 63.4698 31.0159C63.1302 31.21 63.1787 31.2827 63.7123 31.404C64.7795 31.6708 65.2646 33.781 64.4885 34.8724C64.1974 35.2847 63.8821 35.406 63.0089 35.406C61.6264 35.406 61.2626 34.9694 61.2384 33.3929C61.2384 32.1802 61.7962 31.307 62.6451 31.2585C62.9847 31.2585 62.9847 31.21 62.5724 31.0402C61.966 30.7734 61.7235 30.7734 61.0928 31.0402Z" fill="#C1C4D0"/>
<path d="M75.1363 31.1615C75.0877 31.307 75.0877 32.9563 75.112 34.7997C75.1848 38.0013 75.209 38.1953 75.6699 38.1953C76.0579 38.1953 76.1792 38.0013 76.2277 37.2251C76.2762 36.6915 76.446 36.1822 76.5915 36.0852C76.7613 35.9881 77.586 35.8911 78.4591 35.8911C80.7148 35.8669 81.1999 35.4545 81.1999 33.4899C81.1999 31.2342 80.8846 30.9917 77.7315 30.9432C76.1792 30.9432 75.209 31.0159 75.1363 31.1615ZM79.2838 31.5981C79.8659 32.0104 80.0842 34.0235 79.6719 34.8239C79.3808 35.3333 79.1868 35.406 77.9498 35.406C76.7371 35.406 76.5673 35.3575 76.4218 34.8482C76.1064 33.6354 76.446 31.9619 77.1251 31.4768C77.5132 31.1857 78.823 31.2585 79.2838 31.5981Z" fill="#C1C4D0"/>
<path d="M67.3748 32.7865C67.4475 33.7567 67.5688 34.7269 67.6658 34.9452C67.9326 35.6243 68.9513 35.8911 71.4253 35.8911H73.8508V33.4657V31.0402H73.1231H72.3955V32.835C72.3955 35.3333 72.347 35.406 70.7947 35.406C69.0969 35.406 68.7573 34.9452 68.7573 32.6895V31.0402H68.0054H67.2292L67.3748 32.7865Z" fill="#C1C4D0"/>
</svg>
